<svg width="128" height="134" viewBox="0 0 128 134" fill="none" xmlns="http://www.w3.org/2000/svg">
<path fill-rule="evenodd" clip-rule="evenodd" d="M96.2468 42.1669L64.9624 60.1669C64.1843 60.6146 63.226 60.6107 62.4516 60.1569L31.736 42.1569L34.264 37.8431L63.7271 55.1091L93.7532 37.8331L96.2468 42.1669Z" fill="#E0E9FB" fill-opacity="0.7"/>
<path fill-rule="evenodd" clip-rule="evenodd" d="M62.441 0.849351C63.2207 0.387208 64.1895 0.383326 64.973 0.839207L96.2574 19.0437C97.0267 19.4913 97.5 20.3143 97.5 21.2044V112.796C97.5 113.686 97.0267 114.509 96.2574 114.956L64.973 133.161C64.1895 133.617 63.2207 133.613 62.441 133.151L31.7254 114.946C30.9658 114.496 30.5 113.679 30.5 112.796V21.2044C30.5 20.3215 30.9658 19.504 31.7254 19.0538L62.441 0.849351ZM63.7272 5.89922L37.9033 21.2044L63.7272 36.5097L90.0293 21.2044L63.7272 5.89922ZM92.5 25.5517L66.2156 40.8466V126.653L92.5 111.358V25.5517ZM61.2156 126.612V40.8333L35.5 25.5922V111.371L61.2156 126.612Z" fill="#E0E9FB"/>
</svg>
