<svg width="128" height="128" viewBox="0 0 128 128" fill="none" xmlns="http://www.w3.org/2000/svg">
<path d="M64.6073 82.3403C63.5967 81.8945 62.4161 82.3523 61.9702 83.3629C61.5244 84.3735 61.9822 85.5542 62.9928 86L64.6073 82.3403ZM65.0534 86.9091C66.064 87.3549 67.2446 86.8971 67.6905 85.8865C68.1363 84.8759 67.6785 83.6953 66.6679 83.2494L65.0534 86.9091ZM73.8801 86.4312C72.8695 85.9854 71.6888 86.4432 71.2429 87.4538C70.7971 88.4644 71.2549 89.6451 72.2655 90.0909L73.8801 86.4312ZM76.3867 91.9091C77.3973 92.3549 78.578 91.8971 79.0238 90.8865C79.4697 89.8759 79.0119 88.6953 78.0013 88.2494L76.3867 91.9091ZM85.2134 91.4312C84.2028 90.9854 83.0221 91.4432 82.5763 92.4538C82.1304 93.4644 82.5882 94.6451 83.5988 95.0909L85.2134 91.4312ZM87.72 96.9091C88.7306 97.3549 89.9113 96.8971 90.3572 95.8865C90.803 94.8759 90.3452 93.6953 89.3346 93.2494L87.72 96.9091ZM96.5467 96.4312C95.5361 95.9854 94.3555 96.4432 93.9096 97.4538C93.4638 98.4644 93.9216 99.6451 94.9322 100.091L96.5467 96.4312ZM62.9928 86L65.0534 86.9091L66.6679 83.2494L64.6073 82.3403L62.9928 86ZM72.2655 90.0909L76.3867 91.9091L78.0013 88.2494L73.8801 86.4312L72.2655 90.0909ZM83.5988 95.0909L87.72 96.9091L89.3346 93.2494L85.2134 91.4312L83.5988 95.0909ZM94.9322 100.091L96.9928 101L98.6073 97.3403L96.5467 96.4312L94.9322 100.091Z" fill="#A7AFBC"/>
<path d="M62.9928 82.3403C64.0034 81.8945 65.184 82.3523 65.6299 83.3629C66.0757 84.3735 65.6179 85.5542 64.6073 86L62.9928 82.3403ZM62.5467 86.9091C61.5361 87.3549 60.3555 86.8971 59.9096 85.8865C59.4638 84.8759 59.9216 83.6953 60.9322 83.2494L62.5467 86.9091ZM53.72 86.4312C54.7306 85.9854 55.9113 86.4432 56.3572 87.4538C56.803 88.4644 56.3452 89.6451 55.3346 90.0909L53.72 86.4312ZM51.2134 91.9091C50.2028 92.3549 49.0221 91.8971 48.5763 90.8865C48.1304 89.8759 48.5882 88.6953 49.5988 88.2494L51.2134 91.9091ZM42.3867 91.4312C43.3973 90.9854 44.578 91.4432 45.0238 92.4538C45.4697 93.4644 45.0119 94.6451 44.0013 95.0909L42.3867 91.4312ZM39.8801 96.9091C38.8695 97.3549 37.6888 96.8971 37.2429 95.8865C36.7971 94.8759 37.2549 93.6953 38.2655 93.2494L39.8801 96.9091ZM31.0534 96.4312C32.064 95.9854 33.2446 96.4432 33.6905 97.4538C34.1363 98.4644 33.6785 99.6451 32.6679 100.091L31.0534 96.4312ZM64.6073 86L62.5467 86.9091L60.9322 83.2494L62.9928 82.3403L64.6073 86ZM55.3346 90.0909L51.2134 91.9091L49.5988 88.2494L53.72 86.4312L55.3346 90.0909ZM44.0013 95.0909L39.8801 96.9091L38.2655 93.2494L42.3867 91.4312L44.0013 95.0909ZM32.6679 100.091L30.6073 101L28.9928 97.3403L31.0534 96.4312L32.6679 100.091Z" fill="#A7AFBC"/>
<path d="M64 8L64 45" stroke="#A7AFBC" stroke-width="4" stroke-dasharray="4 7"/>
<path d="M30.8 26V101C30.8 101 30.8 101 30.8 101C30.8001 101.006 30.8032 101.694 31.5257 102.761C31.8554 103.247 32.3324 103.61 32.847 103.894L61.3816 119.663C62.8866 120.495 64.7134 120.495 66.2185 119.663L94.7531 103.894C95.2677 103.61 95.7447 103.247 96.0744 102.761C96.7967 101.694 96.8 101.007 96.8 101C96.8 101 96.8 101 96.8 101V26M63.8 45L63.8001 120M61.7396 8.93184L33.8023 21.5668C29.9271 23.3194 29.8704 28.8025 33.7086 30.6348L61.6459 43.9717C63.0083 44.6221 64.5917 44.6221 65.9541 43.9717L93.8914 30.6348C97.7296 28.8025 97.6729 23.3194 93.7977 21.5668L65.8604 8.93183C64.5507 8.33949 63.0493 8.33949 61.7396 8.93184Z" stroke="#E0E9FB" stroke-width="8"/>
</svg>
